<svg width="60" height="15" viewBox="0 0 60 15" fill="none" xmlns="http://www.w3.org/2000/svg">
<path d="M10.02 13.696L0.425 9.117V7.768L10.02 3.208V4.804L2.04 8.376V8.49L10.02 12.119V13.696ZM21.7063 14.266C21.073 14.266 20.446 14.2407 19.8253 14.19C19.2173 14.1393 18.7043 14.0823 18.2863 14.019C17.8683 13.9683 17.634 13.9367 17.5833 13.924L17.6593 7.863L17.5643 0.756999C17.6277 0.744333 17.8683 0.725333 18.2863 0.699999C18.717 0.662 19.23 0.624 19.8253 0.585999C20.4207 0.547999 21.0033 0.528999 21.5733 0.528999C22.27 0.528999 22.897 0.636666 23.4543 0.851999C24.0117 1.06733 24.455 1.43467 24.7843 1.954C25.1263 2.46067 25.2973 3.16367 25.2973 4.063C25.2973 4.68367 25.2087 5.19033 25.0313 5.583C24.8667 5.97567 24.6577 6.27967 24.4043 6.495C24.1637 6.69767 23.923 6.84333 23.6823 6.932C23.4543 7.02067 23.2833 7.07133 23.1693 7.084V7.16C23.3593 7.17267 23.5937 7.22967 23.8723 7.331C24.151 7.41967 24.4233 7.57167 24.6893 7.787C24.968 7.98967 25.196 8.28733 25.3733 8.68C25.5507 9.06 25.6393 9.54767 25.6393 10.143C25.6393 10.9663 25.5253 11.6503 25.2973 12.195C25.082 12.727 24.7843 13.145 24.4043 13.449C24.0243 13.753 23.6 13.962 23.1313 14.076C22.6753 14.2027 22.2003 14.266 21.7063 14.266ZM21.6493 6.514C22.4347 6.514 22.9603 6.33033 23.2263 5.963C23.505 5.583 23.6443 4.96867 23.6443 4.12C23.6443 3.22067 23.4797 2.59367 23.1503 2.239C22.821 1.88433 22.27 1.707 21.4973 1.707C20.9527 1.707 20.4713 1.726 20.0533 1.764C19.648 1.802 19.3503 1.83367 19.1603 1.859V6.495L21.6493 6.514ZM21.9153 13.031C22.7387 13.031 23.2833 12.803 23.5493 12.347C23.8153 11.891 23.9483 11.188 23.9483 10.238C23.9483 9.288 23.7267 8.63567 23.2833 8.281C22.8527 7.92633 22.2573 7.749 21.4973 7.749H19.1603L19.1983 12.841C19.325 12.8537 19.6353 12.8917 20.1293 12.955C20.636 13.0057 21.2313 13.031 21.9153 13.031ZM27.3352 14L30.9262 0.794999H33.1682L36.7592 14H35.1252L34.2322 10.504H29.8622L28.9692 14H27.3352ZM30.2042 9.098H33.8902L32.1232 2.201H31.9712L30.2042 9.098ZM42.7796 14.266C41.8802 14.266 41.0886 14.0507 40.4046 13.62C39.7206 13.1767 39.1822 12.461 38.7896 11.473C38.4096 10.485 38.2196 9.174 38.2196 7.54C38.2196 6.096 38.3399 4.918 38.5806 4.006C38.8339 3.08133 39.1759 2.36567 39.6066 1.859C40.0499 1.35233 40.5692 1.004 41.1646 0.814C41.7599 0.623999 42.4059 0.528999 43.1026 0.528999C43.4066 0.528999 43.7676 0.547999 44.1856 0.585999C44.6036 0.611332 45.0089 0.649332 45.4016 0.699999C45.7942 0.737999 46.0919 0.782333 46.2946 0.833L46.1046 2.201C45.9906 2.18833 45.8069 2.16933 45.5536 2.144C45.3002 2.11867 45.0216 2.09333 44.7176 2.068C44.4136 2.04267 44.1222 2.02367 43.8436 2.011C43.5649 1.98567 43.3496 1.973 43.1976 1.973C42.5769 1.973 42.0766 2.00467 41.6966 2.068C41.3292 2.13133 41.0569 2.27067 40.8796 2.486C40.7149 2.68867 40.5566 2.98633 40.4046 3.379C40.2526 3.77167 40.1322 4.31 40.0436 4.994C39.9549 5.66533 39.9106 6.533 39.9106 7.597C39.9106 8.93967 40.0372 10.0163 40.2906 10.827C40.5566 11.625 40.8162 12.1507 41.0696 12.404C41.2469 12.5813 41.4622 12.708 41.7156 12.784C41.9689 12.8473 42.2539 12.879 42.5706 12.879C43.0519 12.879 43.5142 12.8283 43.9576 12.727C44.4136 12.6257 44.8126 12.5053 45.1546 12.366C45.5092 12.2267 45.7879 12.1063 45.9906 12.005C46.1932 11.9037 46.2946 11.853 46.2946 11.853L46.8456 13.107C46.8456 13.107 46.7442 13.164 46.5416 13.278C46.3516 13.392 46.0792 13.5313 45.7246 13.696C45.3699 13.848 44.9392 13.981 44.4326 14.095C43.9386 14.209 43.3876 14.266 42.7796 14.266ZM57.1437 14L51.5767 7.217L56.6687 0.794999H58.6827L53.4577 7.084V7.198L59.2717 14H57.1437ZM49.9237 14L49.9807 7.293L49.9237 0.794999H51.5197V14H49.9237Z" fill="#BFA784"/>
</svg>
